<svg width="80" height="80" viewBox="0 0 80 80" fill="none" xmlns="http://www.w3.org/2000/svg">
<path d="M44.0493 64.2232C44.1211 56.8803 42.2595 50.9091 39.8915 50.8859C37.5234 50.8629 35.5454 56.7967 35.4738 64.1394C35.4019 71.4823 37.2635 77.4536 39.6315 77.4767C41.9997 77.4999 43.9776 71.5661 44.0493 64.2232Z" fill="#3C445B"/>
<path d="M30.3152 62.5555C34.3458 56.4173 36.0083 50.3875 34.0288 49.0877C32.0491 47.7878 27.177 51.7101 23.1466 57.8483C19.116 63.9865 17.4534 70.0161 19.433 71.3161C21.4126 72.616 26.2846 68.6937 30.3152 62.5555Z" stroke="black" stroke-width="0.8" stroke-miterlimit="10"/>
<path d="M19.6467 53.7488C26.3562 50.7645 31.0149 46.5911 30.0523 44.4272C29.0899 42.2634 22.8707 42.9287 16.1613 45.9132C9.45192 48.8975 4.79316 53.0709 5.75563 55.2348C6.7181 57.3986 12.9374 56.7333 19.6467 53.7488Z" fill="#3C445B"/>
<path d="M29.247 38.3592C29.6073 36.0186 24.0158 33.2155 16.7582 32.0984C9.50044 30.9813 3.32485 31.9733 2.9646 34.3139C2.60434 36.6546 8.19583 39.4575 15.4536 40.5746C22.7112 41.6917 28.8869 40.6997 29.247 38.3592Z" stroke="black" stroke-width="0.8" stroke-miterlimit="10"/>
<path d="M31.8528 32.7833C33.4211 31.0089 30.232 25.6282 24.7297 20.7653C19.2275 15.9025 13.4957 13.3989 11.9274 15.1734C10.3591 16.9479 13.5482 22.3285 19.0505 27.1914C24.5528 32.0543 30.2846 34.5578 31.8528 32.7833Z" fill="#3C445B"/>
<path d="M37.0422 29.5245C39.321 28.8797 39.5474 22.629 37.548 15.5633C35.5486 8.49754 32.0805 3.29236 29.8018 3.93717C27.523 4.58199 27.2966 10.8326 29.296 17.8984C31.2954 24.964 34.7635 30.1693 37.0422 29.5245Z" stroke="black" stroke-width="0.8" stroke-miterlimit="10"/>
<path d="M51.1334 18.1182C53.2718 11.0932 53.1688 4.83934 50.9032 4.14972C48.6376 3.46009 45.0675 8.59586 42.9291 15.6208C40.7909 22.6457 40.8939 28.8996 43.1595 29.5892C45.4251 30.2788 48.9952 25.1431 51.1334 18.1182Z" fill="#3C445B"/>
<path d="M61.2023 27.6104C66.7986 22.856 70.0923 17.5387 68.5589 15.734C67.0256 13.9292 61.2459 16.3203 55.6498 21.0745C50.0535 25.8289 46.7599 31.1462 48.2931 32.951C49.8264 34.7558 55.6061 32.3648 61.2023 27.6104Z" stroke="black" stroke-width="0.8" stroke-miterlimit="10"/>
<path d="M64.5315 41.0431C71.8099 40.0693 77.4555 37.3772 77.1415 35.0298C76.8275 32.6826 70.6727 31.5692 63.3943 32.5428C56.116 33.5165 50.4703 36.2087 50.7843 38.556C51.0984 40.9032 57.2531 42.0168 64.5315 41.0431Z" fill="#3C445B"/>
<path d="M73.9207 55.9056C74.9256 53.7612 70.3501 49.4968 63.7008 46.3806C57.0517 43.2644 50.8467 42.4768 49.8418 44.6211C48.8368 46.7656 53.4123 51.03 60.0616 54.1462C66.7107 57.2622 72.9157 58.05 73.9207 55.9056Z" stroke="black" stroke-width="0.8" stroke-miterlimit="10"/>
<path d="M59.9343 71.7279C61.9391 70.4674 60.3957 64.406 56.4871 58.1895C52.5784 51.973 47.7845 47.9556 45.7797 49.2161C43.7749 50.4765 45.3183 56.538 49.2269 62.7545C53.1355 68.9709 57.9295 72.9885 59.9343 71.7279Z" fill="#3C445B"/>
</svg>
